<?xml version="1.0" encoding="utf-8"?>
<!-- Generator: Adobe Illustrator 24.3.0, SVG Export Plug-In . SVG Version: 6.00 Build 0)  -->
<svg version="1.1" id="Layer_1" xmlns="http://www.w3.org/2000/svg" xmlns:xlink="http://www.w3.org/1999/xlink" x="0px" y="0px"
	 viewBox="0 0 100 100" style="enable-background:new 0 0 100 100;" xml:space="preserve">
<style type="text/css">
	.st0{fill:#010101;}
</style>
<g>
	<path class="st0" d="M50.84,81.2h-2.19V67.77c0-1.31-0.14-2.62-0.42-3.9c-0.1-0.53-0.61-0.87-1.14-0.77
		c-0.53,0.1-0.87,0.61-0.77,1.14c0,0.02,0.01,0.04,0.01,0.06c0.25,1.14,0.38,2.31,0.38,3.48v13.43h-3.4
		c-0.54-0.02-0.99,0.39-1.01,0.93s0.39,0.99,0.93,1.01c0.03,0,0.05,0,0.08,0h6.56v4.83H11.57v-4.82h20.94
		c0.54-0.02,0.95-0.48,0.93-1.01c-0.02-0.5-0.43-0.91-0.93-0.93H10.6c-0.54,0-0.97,0.43-0.97,0.97v6.76c0,0.54,0.43,0.97,0.97,0.97
		h40.25c0.54,0,0.97-0.43,0.97-0.97c0,0,0,0,0,0v-6.76C51.81,81.63,51.38,81.2,50.84,81.2C50.84,81.2,50.84,81.2,50.84,81.2z"/>
	<path class="st0" d="M38.15,83.14c0.54,0.02,0.99-0.39,1.01-0.93c0.02-0.54-0.39-0.99-0.93-1.01c-0.03,0-0.05,0-0.08,0h-0.24
		c-0.54-0.02-0.99,0.39-1.01,0.93s0.39,0.99,0.93,1.01c0.03,0,0.05,0,0.08,0H38.15z"/>
	<path class="st0" d="M12.79,67.77v9.9c-0.02,0.54,0.39,0.99,0.93,1.01c0.54,0.02,0.99-0.39,1.01-0.93c0-0.03,0-0.05,0-0.08v-9.9
		c0.01-8.84,7.18-16,16.02-15.99c1.47,0,2.93,0.2,4.34,0.6c0.51,0.17,1.06-0.1,1.23-0.6c0.17-0.51-0.1-1.06-0.6-1.23
		c-0.04-0.01-0.07-0.02-0.11-0.03c-9.54-2.69-19.46,2.86-22.15,12.39C13.02,64.5,12.79,66.13,12.79,67.77z"/>
	<path class="st0" d="M78.76,36.07c0.48,0.25,1.06,0.06,1.31-0.42c0,0,0,0,0,0c3.26-6.33,0.76-14.11-5.57-17.36
		c-4.45-2.29-9.82-1.8-13.77,1.26c-0.41,0.34-0.47,0.96-0.12,1.37c0.33,0.39,0.89,0.46,1.31,0.17c4.79-3.7,11.66-2.81,15.36,1.97
		c2.6,3.36,3.01,7.93,1.07,11.71C78.1,35.24,78.29,35.82,78.76,36.07z"/>
	<path class="st0" d="M84.95,37.56c-0.43,0.32-0.51,0.93-0.19,1.36l0,0c3.41,4.52,2.89,5.64,2.89,5.65
		c-0.16,0.19-1.87,0.34-6.75-2.48c-4.22-2.43-9.36-6.23-14.49-10.67c-5.13-4.45-9.61-9-12.61-12.84c-3.48-4.43-3.57-6.14-3.41-6.33
		c0.16-0.19,1.84-0.33,6.63,2.42c0.45,0.28,1.05,0.15,1.34-0.31c0.28-0.45,0.15-1.05-0.31-1.34c-0.02-0.01-0.04-0.03-0.06-0.04
		c-4.86-2.78-7.82-3.45-9.08-2.01s-0.16,4.33,3.35,8.8c1.25,1.59,2.74,3.3,4.42,5.07c-2.7,6.59,0.46,14.13,7.05,16.83
		c3.61,1.48,7.7,1.24,11.11-0.64c0.13-0.07,0.24-0.17,0.32-0.29c1.67,1.15,3.27,2.18,4.75,3.04c3.25,1.88,5.66,2.82,7.29,2.82
		c0.84,0,1.47-0.25,1.89-0.74c1.21-1.39,0.32-3.96-2.8-8.1C85.99,37.33,85.38,37.24,84.95,37.56
		C84.95,37.55,84.95,37.55,84.95,37.56z M61.43,38.02c-3.33-2.87-4.61-7.45-3.25-11.63c2.11,2.13,4.45,4.33,6.95,6.49
		c2.83,2.45,5.67,4.71,8.36,6.66C69.53,41.51,64.78,40.91,61.43,38.02L61.43,38.02z"/>
	<path class="st0" d="M81.15,55.98c-3.19-1.3-4.35-6.01-4.35-6.05c-0.12-0.52-0.63-0.86-1.16-0.74c-0.4,0.09-0.7,0.42-0.75,0.82
		c-0.69,4.74-4.12,5.9-4.26,5.94c-0.51,0.16-0.8,0.7-0.64,1.22c0.08,0.25,0.25,0.46,0.49,0.58c0.88,0.47,1.66,1.11,2.29,1.89
		c0.34,0.41,0.95,0.47,1.37,0.13c0.41-0.34,0.47-0.95,0.13-1.37c-0.43-0.52-0.9-0.99-1.42-1.41c1.38-0.93,2.47-2.23,3.14-3.75
		c0.65,1.3,1.63,2.78,3.06,3.79c-1.38,1.23-3.48,3.6-3.86,6.94c-0.06,0.53,0.32,1.01,0.85,1.08c0,0,0,0,0,0h0.11
		c0.49,0,0.91-0.37,0.96-0.86c0.47-4.03,4.17-6.47,4.2-6.49c0.45-0.29,0.58-0.89,0.29-1.34C81.5,56.18,81.34,56.05,81.15,55.98
		L81.15,55.98z"/>
	<path class="st0" d="M37.38,30.56c-0.06,0.53,0.32,1.02,0.85,1.08c0.04,0,0.08,0,0.11,0c0.49,0,0.91-0.37,0.96-0.86
		c0.47-4.03,4.17-6.47,4.2-6.49c0.45-0.29,0.58-0.89,0.29-1.34c-0.11-0.17-0.27-0.3-0.45-0.37c-3.19-1.3-4.35-6.01-4.35-6.05
		c-0.12-0.52-0.63-0.86-1.16-0.74c-0.4,0.09-0.7,0.42-0.75,0.82c-0.68,4.74-4.12,5.9-4.26,5.95c-0.51,0.16-0.8,0.7-0.64,1.22
		c0.08,0.25,0.25,0.46,0.49,0.58c0.88,0.47,1.66,1.11,2.29,1.89c0.34,0.41,0.95,0.47,1.37,0.13s0.47-0.95,0.13-1.37
		c-0.43-0.52-0.9-0.99-1.42-1.41c1.38-0.93,2.46-2.23,3.13-3.75c0.65,1.3,1.63,2.78,3.06,3.79C39.87,24.84,37.77,27.22,37.38,30.56z
		"/>
	<path class="st0" d="M52.89,43.31c-0.39-0.37-1.01-0.34-1.37,0.05c-0.35,0.37-0.35,0.95,0,1.32l5.91,5.91l-2.5,2.5l-7.4-7.4l0,0
		l-1.59-1.59l2.5-2.5l0.61,0.61c0.39,0.37,1.01,0.34,1.37-0.05c0.35-0.37,0.35-0.95,0-1.32l-1.3-1.3c-0.38-0.38-0.99-0.38-1.37,0
		l-3.87,3.87c-0.38,0.38-0.38,0.99,0,1.37c0,0,0,0,0,0l1.59,1.59l-8.95,8.95c-0.46-0.3-0.87-0.56-1.22-0.75
		c-0.48-0.24-1.06-0.05-1.31,0.43c-0.23,0.46-0.07,1.02,0.37,1.28c2.24,1.23,6.89,4.95,8.02,8.41c0.21,0.49,0.78,0.72,1.28,0.51
		c0.43-0.19,0.67-0.66,0.56-1.12c-0.17-0.51-0.38-1-0.64-1.47l6.91-6.91c0.37-0.39,0.34-1.01-0.05-1.37c-0.37-0.35-0.95-0.35-1.32,0
		l-6.61,6.61c-1.26-1.72-2.92-3.27-4.43-4.45l8.74-8.74l7.4,7.4c0.38,0.38,0.99,0.38,1.37,0c0,0,0,0,0,0l3.87-3.86
		c0.38-0.38,0.38-0.99,0-1.37c0,0,0,0,0,0L52.89,43.31z"/>
</g>
</svg>
