<?xml version="1.0" encoding="utf-8"?>
<!-- Generator: Adobe Illustrator 24.3.0, SVG Export Plug-In . SVG Version: 6.00 Build 0)  -->
<svg version="1.1" id="Layer_1" xmlns="http://www.w3.org/2000/svg" xmlns:xlink="http://www.w3.org/1999/xlink" x="0px" y="0px"
	 viewBox="0 0 100 100" style="enable-background:new 0 0 100 100;" xml:space="preserve">
<style type="text/css">
	.st0{fill:#010101;}
</style>
<g>
	<path class="st0" d="M49.74,47.83c-10.3,0-18.68-8.49-18.68-18.92S39.44,9.98,49.74,9.98s18.68,8.49,18.68,18.92
		S60.04,47.83,49.74,47.83z M49.74,11.57c-9.43,0-17.11,7.78-17.11,17.33s7.67,17.33,17.11,17.33c9.43,0,17.11-7.78,17.11-17.33
		S59.17,11.57,49.74,11.57z"/>
	<path class="st0" d="M49.74,42.78c-7.55,0-13.69-6.22-13.69-13.87c0-3.83,1.66-7.54,4.33-9.68c0.34-0.27,0.83-0.21,1.1,0.13
		c0.27,0.34,0.21,0.84-0.13,1.12c-2.3,1.84-3.73,5.08-3.73,8.44c0,6.77,5.44,12.28,12.12,12.28c5.86,0,10.87-4.23,11.92-10.06
		c0.08-0.43,0.49-0.71,0.91-0.64c0.43,0.08,0.71,0.49,0.63,0.92C62.01,38,56.35,42.78,49.74,42.78z"/>
	<path class="st0" d="M16.82,40.01c-1.84,0-3.33-1.51-3.33-3.37c0-1.86,1.49-3.37,3.33-3.37c1.83,0,3.33,1.51,3.33,3.37
		C20.15,38.5,18.66,40.01,16.82,40.01z M16.82,34.86c-0.97,0-1.76,0.8-1.76,1.78s0.79,1.78,1.76,1.78c0.97,0,1.76-0.8,1.76-1.78
		S17.79,34.86,16.82,34.86z"/>
	<path class="st0" d="M73.75,64.36c-1.84,0-3.33-1.51-3.33-3.37c0-1.86,1.49-3.37,3.33-3.37c1.83,0,3.33,1.51,3.33,3.37
		C77.08,62.85,75.58,64.36,73.75,64.36z M73.75,59.21c-0.97,0-1.76,0.8-1.76,1.78c0,0.98,0.79,1.78,1.76,1.78
		c0.97,0,1.76-0.8,1.76-1.78C75.51,60.01,74.72,59.21,73.75,59.21z"/>
	<path class="st0" d="M67.44,32.33h-3.63c-0.92,0-1.69-0.31-2.3-0.94c-1.27-1.31-1.39-3.55-1.36-5.12l0-0.33
		c0.01-0.51,0.02-1.72-0.52-2.27c-0.23-0.23-0.55-0.34-0.98-0.34c-0.5,0-1.83,0-1.83,2.98c0,1.64-0.94,3.39-3.59,3.39
		c-1.36,0-2.29-0.67-2.71-1.92c-0.32-0.97-0.32-2.23-0.32-3.57v-0.16c0-1.78-1.5-1.98-1.8-2c-0.17,0.01-1.37,0.16-1.59,2.03
		c-0.13,1.12-0.56,1.98-1.29,2.55c-0.98,0.76-2.11,0.7-2.41,0.67c-0.86-0.01-1.6-0.32-2.12-0.9c-1.03-1.14-0.92-2.88-0.9-3.07
		l0-10.16c0-0.28,0.15-0.55,0.39-0.69c2.81-1.63,6.02-2.49,9.26-2.49c10.3,0,18.68,8.49,18.68,18.92c0,0.9-0.07,1.83-0.2,2.74
		C68.16,32.04,67.83,32.33,67.44,32.33z M58.64,21.74c0.87,0,1.57,0.27,2.1,0.81c1,1.03,0.98,2.64,0.98,3.41l0,0.33
		c-0.03,1.99,0.28,3.32,0.91,3.98c0.3,0.31,0.69,0.46,1.18,0.46h2.94c0.06-0.61,0.1-1.23,0.1-1.83c0-9.56-7.67-17.33-17.11-17.33
		c-2.82,0-5.61,0.71-8.09,2.06v9.76c-0.03,0.41,0.01,1.41,0.49,1.94c0.24,0.26,0.57,0.38,1.01,0.38c0.04,0,0.07,0,0.11,0.01
		c0,0,0.75,0.09,1.31-0.36c0.37-0.3,0.6-0.79,0.68-1.47c0.31-2.68,2.22-3.42,3.19-3.43c1.19,0.07,3.33,0.9,3.33,3.59v0.16
		c0,1.2,0,2.33,0.24,3.06c0.17,0.53,0.43,0.84,1.22,0.84c1.36,0,2.03-0.59,2.03-1.8C55.24,22.34,57.37,21.74,58.64,21.74z"/>
	<path class="st0" d="M47.24,78.43c-0.43,0-0.78-0.36-0.78-0.79V46.86c0-0.44,0.35-0.79,0.78-0.79c0.43,0,0.78,0.36,0.78,0.79v30.78
		C48.02,78.08,47.67,78.43,47.24,78.43z"/>
	<path class="st0" d="M52.24,78.43c-0.43,0-0.78-0.36-0.78-0.79V46.86c0-0.44,0.35-0.79,0.78-0.79c0.43,0,0.78,0.36,0.78,0.79v30.78
		C53.02,78.08,52.67,78.43,52.24,78.43z"/>
	<path class="st0" d="M83.81,89.98c-0.43,0-0.78-0.36-0.78-0.79c0-5.26-4.55-9.54-10.14-9.54c-1.8,0-3.58,0.46-5.15,1.33
		c-0.34,0.19-0.76,0.1-1-0.21c-1.91-2.5-4.98-3.99-8.23-3.99c-3.22,0-6.29,1.47-8.19,3.94c-0.3,0.38-0.94,0.38-1.23,0
		c-1.91-2.47-4.97-3.94-8.19-3.94c-3.25,0-6.33,1.49-8.23,3.99c-0.24,0.31-0.66,0.4-1,0.21c-1.57-0.87-3.35-1.33-5.15-1.33
		c-5.59,0-10.14,4.28-10.14,9.54c0,0.44-0.35,0.79-0.78,0.79c-0.43,0-0.78-0.36-0.78-0.79c0-6.13,5.25-11.13,11.7-11.13
		c1.85,0,3.67,0.42,5.32,1.23c2.22-2.58,5.55-4.09,9.06-4.09c3.37,0,6.6,1.41,8.81,3.82c2.21-2.41,5.44-3.82,8.81-3.82
		c3.51,0,6.84,1.52,9.06,4.09c1.65-0.8,3.48-1.23,5.32-1.23c6.45,0,11.7,4.99,11.7,11.13C84.6,89.63,84.25,89.98,83.81,89.98z"/>
	<path class="st0" d="M88.93,89.98H10.5c-0.43,0-0.78-0.36-0.78-0.79c0-0.44,0.35-0.79,0.78-0.79h78.43c0.43,0,0.78,0.36,0.78,0.79
		C89.71,89.63,89.36,89.98,88.93,89.98z"/>
	<path class="st0" d="M78.81,34.59c-0.19,0-0.37-0.07-0.52-0.2l-2.19-1.99c-0.32-0.29-0.35-0.8-0.06-1.12
		c0.29-0.33,0.78-0.36,1.11-0.06l1.67,1.51l1.67-1.51c0.32-0.29,0.82-0.27,1.11,0.06c0.29,0.33,0.26,0.83-0.06,1.12l-2.19,1.99
		C79.18,34.52,79,34.59,78.81,34.59z"/>
	<path class="st0" d="M72.76,40.75c-0.19,0-0.37-0.07-0.52-0.2c-0.32-0.29-0.35-0.8-0.06-1.12l1.49-1.69l-1.49-1.69
		c-0.29-0.33-0.26-0.83,0.06-1.12c0.32-0.29,0.82-0.27,1.11,0.06l1.96,2.22c0.27,0.3,0.27,0.76,0,1.06l-1.96,2.22
		C73.19,40.66,72.98,40.75,72.76,40.75z"/>
	<path class="st0" d="M76.42,44.65c-0.22,0-0.43-0.09-0.58-0.26c-0.29-0.33-0.26-0.83,0.06-1.12l2.19-1.99
		c0.3-0.27,0.75-0.27,1.05,0l2.19,1.99c0.32,0.29,0.35,0.8,0.06,1.12c-0.29,0.33-0.78,0.36-1.11,0.06l-1.67-1.51l-1.67,1.51
		C76.79,44.59,76.61,44.65,76.42,44.65z"/>
	<path class="st0" d="M84.66,40.95c-0.22,0-0.43-0.09-0.58-0.26l-1.96-2.22c-0.27-0.3-0.27-0.76,0-1.06l1.96-2.22
		c0.29-0.33,0.78-0.36,1.11-0.06c0.32,0.29,0.35,0.8,0.06,1.12l-1.49,1.69l1.49,1.69c0.29,0.33,0.26,0.83-0.06,1.12
		C85.03,40.88,84.84,40.95,84.66,40.95z"/>
	<path class="st0" d="M82.7,38.53h-7.97c-0.43,0-0.78-0.36-0.78-0.79c0-0.44,0.35-0.79,0.78-0.79h7.97c0.43,0,0.78,0.36,0.78,0.79
		C83.48,38.17,83.13,38.53,82.7,38.53z"/>
	<path class="st0" d="M78.81,42.67c-0.43,0-0.78-0.36-0.78-0.79v-8.08c0-0.44,0.35-0.79,0.78-0.79s0.78,0.36,0.78,0.79v8.08
		C79.59,42.31,79.24,42.67,78.81,42.67z"/>
	<g>
		<path class="st0" d="M25.78,50.06c-0.19,0-0.37-0.07-0.52-0.2l-2.19-1.99c-0.32-0.29-0.35-0.8-0.06-1.12
			c0.29-0.33,0.78-0.36,1.11-0.06l1.67,1.51l1.67-1.51c0.32-0.29,0.82-0.27,1.11,0.06c0.29,0.33,0.26,0.83-0.06,1.12l-2.19,1.99
			C26.15,49.99,25.96,50.06,25.78,50.06z"/>
		<path class="st0" d="M19.73,56.21c-0.19,0-0.37-0.07-0.52-0.2c-0.32-0.29-0.35-0.8-0.06-1.12l1.49-1.69l-1.49-1.69
			c-0.29-0.33-0.26-0.83,0.06-1.12c0.32-0.29,0.82-0.27,1.11,0.06l1.96,2.22c0.27,0.3,0.27,0.76,0,1.06l-1.96,2.22
			C20.16,56.13,19.94,56.21,19.73,56.21z"/>
		<path class="st0" d="M23.39,60.12c-0.22,0-0.43-0.09-0.58-0.26c-0.29-0.33-0.26-0.83,0.06-1.12l2.19-1.99
			c0.3-0.27,0.75-0.27,1.05,0l2.19,1.99c0.32,0.29,0.35,0.8,0.06,1.12c-0.29,0.33-0.78,0.36-1.11,0.06l-1.67-1.51l-1.67,1.51
			C23.76,60.05,23.58,60.12,23.39,60.12z"/>
		<path class="st0" d="M31.62,56.41c-0.22,0-0.43-0.09-0.58-0.26l-1.96-2.22c-0.27-0.3-0.27-0.76,0-1.06l1.96-2.22
			c0.29-0.33,0.78-0.36,1.11-0.06c0.32,0.29,0.35,0.8,0.06,1.12l-1.49,1.69l1.49,1.69c0.29,0.33,0.26,0.83-0.06,1.12
			C32,56.35,31.81,56.41,31.62,56.41z"/>
		<path class="st0" d="M29.66,54h-7.97c-0.43,0-0.78-0.36-0.78-0.79c0-0.44,0.35-0.79,0.78-0.79h7.97c0.43,0,0.78,0.36,0.78,0.79
			C30.45,53.64,30.1,54,29.66,54z"/>
		<path class="st0" d="M25.78,58.13c-0.43,0-0.78-0.36-0.78-0.79v-8.08c0-0.44,0.35-0.79,0.78-0.79c0.43,0,0.78,0.36,0.78,0.79v8.08
			C26.56,57.78,26.21,58.13,25.78,58.13z"/>
	</g>
</g>
</svg>
