<?xml version="1.0" encoding="utf-8"?>
<!-- Generator: Adobe Illustrator 24.3.0, SVG Export Plug-In . SVG Version: 6.00 Build 0)  -->
<svg version="1.1" id="Layer_1" xmlns="http://www.w3.org/2000/svg" xmlns:xlink="http://www.w3.org/1999/xlink" x="0px" y="0px"
	 viewBox="0 0 100 100" style="enable-background:new 0 0 100 100;" xml:space="preserve">
<style type="text/css">
	.st0{fill:#010101;}
</style>
<g>
	<path class="st0" d="M22.3,71.88c-0.04,0-0.08,0-0.12-0.01c-0.28-0.04-6.97-1.05-10.43-5.71c-1.7-2.28-2.32-5.04-1.84-8.18
		c0.56-3.73,2.15-6.51,4.71-8.25c4.58-3.11,10.57-1.76,10.82-1.7c0.45,0.1,0.72,0.55,0.62,1c-0.1,0.45-0.55,0.72-1,0.62
		c-0.06-0.01-5.56-1.24-9.52,1.46c-2.16,1.47-3.51,3.87-4,7.12c-0.4,2.69,0.11,5.02,1.53,6.94c3.04,4.1,9.28,5.06,9.34,5.07
		c0.45,0.07,0.77,0.49,0.7,0.94C23.06,71.59,22.7,71.88,22.3,71.88z"/>
	<path class="st0" d="M25.77,55.13c-0.44,0-0.8-0.34-0.83-0.78c-0.02-0.39-0.46-9.72,5.31-15.97c3.15-3.41,7.54-5.22,13.04-5.35
		c5.64-0.14,10.24,1.48,13.67,4.83c6.36,6.2,6.43,16.03,6.43,16.44c0,0.46-0.37,0.83-0.83,0.83h0c-0.46,0-0.83-0.37-0.83-0.83
		c0-0.09-0.08-9.55-5.94-15.26c-3.1-3.02-7.29-4.48-12.46-4.35c-5.03,0.13-9.03,1.75-11.86,4.82c-5.29,5.73-4.87,14.66-4.87,14.75
		c0.03,0.46-0.33,0.85-0.78,0.87C25.8,55.13,25.79,55.13,25.77,55.13z"/>
	<path class="st0" d="M75.7,54.77c-0.26,0-0.51-0.12-0.67-0.34c-5.5-7.59-12.1-4.29-12.38-4.15c-0.41,0.21-0.91,0.05-1.12-0.35
		c-0.21-0.41-0.06-0.91,0.35-1.12c0.08-0.04,8.13-4.14,14.49,4.64c0.27,0.37,0.19,0.89-0.19,1.16
		C76.04,54.72,75.87,54.77,75.7,54.77z"/>
	<path class="st0" d="M65.57,72.31c-0.42,0-0.78-0.32-0.83-0.75c-0.04-0.46,0.29-0.86,0.75-0.9c11.09-1.05,11.08-9.79,11.08-10.16
		c-0.01-0.46,0.36-0.84,0.82-0.84c0,0,0.01,0,0.02,0c0.45,0,0.82,0.36,0.83,0.81c0,0.11,0.08,10.64-12.58,11.84
		C65.62,72.31,65.6,72.31,65.57,72.31z"/>
	<path class="st0" d="M71.24,50.71c-0.13,0-0.25-0.03-0.37-0.09c-0.41-0.21-0.57-0.71-0.36-1.12c0.3-0.59,7.19-14.53-4.68-20.61
		c-11.92-6.11-19.14,4.99-19.44,5.46c-0.25,0.39-0.76,0.5-1.15,0.26c-0.39-0.24-0.5-0.76-0.26-1.14c0.08-0.13,8.31-12.86,21.6-6.06
		c13.35,6.84,5.48,22.69,5.4,22.84C71.83,50.54,71.54,50.71,71.24,50.71z"/>
	<path class="st0" d="M88.92,42.14h-5.86c-0.46,0-0.83-0.37-0.83-0.83s0.37-0.83,0.83-0.83h5.86c0.46,0,0.83,0.37,0.83,0.83
		S89.38,42.14,88.92,42.14z"/>
	<path class="st0" d="M76.05,24.94c-0.21,0-0.42-0.08-0.59-0.24c-0.32-0.32-0.32-0.85,0-1.17l4.15-4.15c0.32-0.32,0.85-0.32,1.17,0
		c0.32,0.32,0.32,0.85,0,1.17l-4.15,4.15C76.47,24.86,76.26,24.94,76.05,24.94z"/>
	<path class="st0" d="M58.85,17.81c-0.46,0-0.83-0.37-0.83-0.83v-5.86c0-0.46,0.37-0.83,0.83-0.83s0.83,0.37,0.83,0.83v5.86
		C59.68,17.44,59.3,17.81,58.85,17.81z"/>
	<path class="st0" d="M41.64,24.94c-0.21,0-0.42-0.08-0.59-0.24l-4.15-4.15c-0.32-0.32-0.32-0.85,0-1.17c0.32-0.32,0.85-0.32,1.17,0
		l4.15,4.15c0.32,0.32,0.32,0.85,0,1.17C42.07,24.86,41.86,24.94,41.64,24.94z"/>
	<path class="st0" d="M34.26,67.9c-0.28,0-0.56-0.14-0.71-0.4l-1.74-2.91c-0.23-0.39-0.11-0.9,0.29-1.14
		c0.39-0.23,0.9-0.11,1.14,0.29l1.74,2.91c0.23,0.39,0.11,0.9-0.29,1.14C34.55,67.86,34.4,67.9,34.26,67.9z"/>
	<path class="st0" d="M28.59,71.88c-0.45,0-0.82-0.36-0.83-0.82c-0.01-0.46,0.36-0.84,0.82-0.84l3.39-0.05
		c0.46-0.03,0.84,0.36,0.84,0.82c0.01,0.46-0.36,0.84-0.82,0.84l-3.39,0.05C28.59,71.88,28.59,71.88,28.59,71.88z"/>
	<path class="st0" d="M32.58,78.72c-0.14,0-0.28-0.03-0.4-0.11c-0.4-0.22-0.54-0.73-0.32-1.13l1.65-2.96
		c0.22-0.4,0.73-0.54,1.13-0.32c0.4,0.22,0.54,0.73,0.32,1.13l-1.65,2.96C33.15,78.57,32.87,78.72,32.58,78.72z"/>
	<path class="st0" d="M40.51,78.69c-0.28,0-0.56-0.14-0.71-0.4l-1.74-2.91c-0.23-0.39-0.11-0.9,0.29-1.14
		c0.39-0.23,0.9-0.11,1.14,0.29l1.74,2.91c0.23,0.39,0.11,0.9-0.29,1.14C40.8,78.65,40.66,78.69,40.51,78.69z"/>
	<path class="st0" d="M41.05,71.85c-0.45,0-0.82-0.36-0.83-0.82c-0.01-0.46,0.36-0.84,0.82-0.84l3.39-0.05
		c0.46,0,0.84,0.36,0.84,0.82c0.01,0.46-0.36,0.84-0.82,0.84l-3.39,0.05C41.06,71.85,41.06,71.85,41.05,71.85z"/>
	<path class="st0" d="M38.8,67.92c-0.14,0-0.28-0.03-0.4-0.11c-0.4-0.22-0.54-0.73-0.32-1.13l1.65-2.96
		c0.22-0.4,0.73-0.55,1.13-0.32c0.4,0.22,0.54,0.73,0.32,1.13l-1.65,2.96C39.37,67.76,39.09,67.92,38.8,67.92z"/>
	<path class="st0" d="M52.87,78.86c-0.28,0-0.56-0.14-0.71-0.4l-1.74-2.91c-0.23-0.39-0.11-0.9,0.29-1.14
		c0.39-0.23,0.9-0.11,1.14,0.29l1.74,2.91c0.23,0.39,0.11,0.9-0.29,1.14C53.16,78.82,53.02,78.86,52.87,78.86z"/>
	<path class="st0" d="M47.2,82.83c-0.45,0-0.82-0.36-0.83-0.82c-0.01-0.46,0.36-0.84,0.82-0.84l3.39-0.05
		c0.44-0.01,0.84,0.36,0.84,0.82c0.01,0.46-0.36,0.84-0.82,0.84l-3.39,0.05C47.21,82.83,47.2,82.83,47.2,82.83z"/>
	<path class="st0" d="M51.19,89.68c-0.14,0-0.28-0.03-0.4-0.11c-0.4-0.22-0.54-0.73-0.32-1.13l1.65-2.96
		c0.22-0.4,0.73-0.54,1.13-0.32c0.4,0.22,0.54,0.73,0.32,1.13l-1.65,2.96C51.77,89.52,51.49,89.68,51.19,89.68z"/>
	<path class="st0" d="M59.13,89.64c-0.28,0-0.56-0.14-0.71-0.4l-1.74-2.91c-0.23-0.39-0.11-0.9,0.29-1.14
		c0.39-0.23,0.9-0.11,1.14,0.29l1.74,2.91c0.23,0.39,0.11,0.9-0.29,1.14C59.42,89.6,59.27,89.64,59.13,89.64z"/>
	<path class="st0" d="M59.67,82.81c-0.45,0-0.82-0.36-0.83-0.82c-0.01-0.46,0.36-0.84,0.82-0.84l3.39-0.05
		c0.44,0.01,0.84,0.36,0.84,0.82c0.01,0.46-0.36,0.84-0.82,0.84l-3.39,0.05C59.68,82.81,59.67,82.81,59.67,82.81z"/>
	<path class="st0" d="M57.41,78.87c-0.14,0-0.28-0.03-0.4-0.11c-0.4-0.22-0.54-0.73-0.32-1.13l1.65-2.96
		c0.22-0.4,0.73-0.55,1.13-0.32c0.4,0.22,0.54,0.73,0.32,1.13l-1.65,2.96C57.98,78.72,57.7,78.87,57.41,78.87z"/>
	<circle class="st0" cx="76.83" cy="57.05" r="0.78"/>
</g>
</svg>
