<?xml version="1.0" encoding="utf-8"?>
<!-- Generator: Adobe Illustrator 24.3.0, SVG Export Plug-In . SVG Version: 6.00 Build 0)  -->
<svg version="1.1" id="Layer_1" xmlns="http://www.w3.org/2000/svg" xmlns:xlink="http://www.w3.org/1999/xlink" x="0px" y="0px"
	 viewBox="0 0 100 100" style="enable-background:new 0 0 100 100;" xml:space="preserve">
<style type="text/css">
	.st0{fill:#010101;}
</style>
<g>
	<circle class="st0" cx="38.43" cy="19.43" r="1.53"/>
	<path class="st0" d="M25.24,88.61h-8.17c-1.73,0-3.13-1.41-3.13-3.13v-1.9c0-0.44,0.35-0.79,0.79-0.79s0.79,0.35,0.79,0.79v1.9
		c0,0.85,0.69,1.55,1.55,1.55h8.17c0.85,0,1.55-0.69,1.55-1.55V84.1c0-0.44,0.35-0.79,0.79-0.79c0.44,0,0.79,0.35,0.79,0.79v1.37
		C28.37,87.2,26.97,88.61,25.24,88.61z"/>
	<path class="st0" d="M36.99,84.33H15.87c-1.85,0-3.36-1.51-3.36-3.36V64.98c0-1.93,2.3-5.76,3.6-7.77h-5.6
		c-0.44,0-0.79-0.35-0.79-0.79V52.6c0-2.27,1.85-4.12,4.12-4.12h6.66c0.21,0,0.41,0.08,0.56,0.23c0.15,0.15,0.23,0.35,0.23,0.56
		l-0.05,5.71c0,0.44-0.36,0.79-0.79,0.79c0,0,0,0-0.01,0c-0.44,0-0.79-0.36-0.79-0.8l0.04-4.91h-5.86c-1.4,0-2.54,1.14-2.54,2.54
		v3.02h6.29c0.29,0,0.56,0.16,0.7,0.42c0.14,0.26,0.12,0.58-0.05,0.82c-1.6,2.32-4.14,6.57-4.14,8.12v15.99
		c0,0.98,0.8,1.78,1.78,1.78h21.12c0.44,0,0.79,0.35,0.79,0.79C37.78,83.97,37.43,84.33,36.99,84.33z"/>
	<path class="st0" d="M39,74.33H26.17c-0.23,0-0.45-0.1-0.6-0.27l-4.99-5.71c-0.2-0.23-0.25-0.57-0.12-0.85
		c0.13-0.28,0.41-0.46,0.72-0.46H39c0.44,0,0.79,0.35,0.79,0.79v5.71C39.79,73.98,39.44,74.33,39,74.33z M26.53,72.75h11.68v-4.13
		H22.92L26.53,72.75z"/>
	
		<rect x="28.58" y="66.89" transform="matrix(0.7528 -0.6583 0.6583 0.7528 -39.2683 36.8097)" class="st0" width="1.58" height="7.59"/>
	<path class="st0" d="M50.42,77.19h-7.14c-0.44,0-0.79-0.35-0.79-0.79v-8.57c0-0.44,0.35-0.79,0.79-0.79h7.14
		c0.44,0,0.79,0.35,0.79,0.79v8.57C51.22,76.83,50.86,77.19,50.42,77.19z M44.08,75.6h5.55v-6.98h-5.55V75.6z"/>
	<path class="st0" d="M50.42,68.62H20.21c-0.21,0-0.42-0.02-0.63-0.07c-1.56-0.35-2.54-1.9-2.2-3.45l2.29-10.29l3.44-16.04
		c0.57-2.65,2.94-4.57,5.65-4.57h21.69c0.44,0,0.79,0.35,0.79,0.79c0,0.44-0.35,0.79-0.79,0.79H28.76c-1.97,0-3.69,1.39-4.1,3.32
		l-3.44,16.05l-2.29,10.3c-0.08,0.34-0.01,0.69,0.17,0.99c0.19,0.3,0.48,0.5,0.82,0.58c0.09,0.02,0.19,0.03,0.28,0.03h30.21
		c0.44,0,0.79,0.35,0.79,0.79S50.86,68.62,50.42,68.62z"/>
	<path class="st0" d="M50.42,87.18H37.57c-0.44,0-0.79-0.35-0.79-0.79v-5.71c0-0.44,0.35-0.79,0.79-0.79h12.85
		c0.44,0,0.79,0.35,0.79,0.79s-0.35,0.79-0.79,0.79H38.37v4.13h12.06c0.44,0,0.79,0.35,0.79,0.79S50.86,87.18,50.42,87.18z"/>
	<path class="st0" d="M50.45,52.92H24.73c-0.24,0-0.47-0.11-0.62-0.3c-0.15-0.19-0.21-0.43-0.16-0.67l2.86-12.85
		c0.08-0.36,0.4-0.62,0.77-0.62h22.87c0.44,0,0.79,0.35,0.79,0.79c0,0.44-0.35,0.79-0.79,0.79H28.22l-2.5,11.27h24.74
		c0.44,0,0.79,0.35,0.79,0.79S50.89,52.92,50.45,52.92z"/>
	<path class="st0" d="M17.59,21.33c-0.44,0-0.79-0.35-0.79-0.79v-2.02c0-0.44,0.35-0.79,0.79-0.79c0.44,0,0.79,0.35,0.79,0.79v2.02
		C18.38,20.98,18.02,21.33,17.59,21.33z"/>
	<path class="st0" d="M17.59,29.41c-0.44,0-0.79-0.35-0.79-0.79V26.6c0-0.44,0.35-0.79,0.79-0.79c0.44,0,0.79,0.35,0.79,0.79v2.02
		C18.38,29.06,18.02,29.41,17.59,29.41z"/>
	<path class="st0" d="M14.56,24.36h-2.02c-0.44,0-0.79-0.35-0.79-0.79c0-0.44,0.35-0.79,0.79-0.79h2.02c0.44,0,0.79,0.35,0.79,0.79
		C15.35,24.01,14.99,24.36,14.56,24.36z"/>
	<path class="st0" d="M22.64,24.36h-2.02c-0.44,0-0.79-0.35-0.79-0.79c0-0.44,0.35-0.79,0.79-0.79h2.02c0.44,0,0.79,0.35,0.79,0.79
		C23.43,24.01,23.07,24.36,22.64,24.36z"/>
	<path class="st0" d="M84.4,70.05H60.6c-2.93,0-5.31-2.38-5.31-5.31V16.67c0-2.93,2.38-5.31,5.31-5.31H84.4
		c2.93,0,5.31,2.38,5.31,5.31v48.08C89.71,67.67,87.33,70.05,84.4,70.05z M60.6,12.94c-2.05,0-3.72,1.67-3.72,3.72v48.08
		c0,2.05,1.67,3.72,3.72,3.72h23.8c2.05,0,3.72-1.67,3.72-3.72V16.67c0-2.05-1.67-3.72-3.72-3.72H60.6z"/>
	<path class="st0" d="M76.07,65.77h-5.71c-0.44,0-0.79-0.35-0.79-0.79s0.35-0.79,0.79-0.79h5.71c0.44,0,0.79,0.35,0.79,0.79
		S76.51,65.77,76.07,65.77z"/>
	<path class="st0" d="M72.5,45.78c-2.77,0-10.07-8.92-10.07-16.05c0.08-5.44,4.53-9.81,9.94-9.81c0.09,0,0.18,0,0.27,0
		c5.41,0,9.86,4.36,9.94,9.8C82.57,36.86,75.27,45.78,72.5,45.78z M72.37,21.51c-4.55,0-8.29,3.67-8.36,8.24
		c0,6.84,7.09,14.45,8.49,14.45c1.4,0,8.49-7.61,8.49-14.46c-0.07-4.55-3.8-8.22-8.36-8.22c-0.04,0-0.08,0-0.13,0
		C72.45,21.51,72.41,21.51,72.37,21.51z M72.5,34.36c-2.4,0-4.36-1.96-4.36-4.36s1.96-4.36,4.36-4.36c2.4,0,4.36,1.96,4.36,4.36
		S74.91,34.36,72.5,34.36z M72.5,27.22c-1.53,0-2.78,1.25-2.78,2.78c0,1.53,1.25,2.78,2.78,2.78c1.53,0,2.78-1.25,2.78-2.78
		C75.28,28.47,74.03,27.22,72.5,27.22z"/>
	<rect x="56.08" y="59.9" class="st0" width="32.84" height="1.58"/>
</g>
</svg>
